<?xml version="1.0" encoding="UTF-8" standalone="no"?>
<!DOCTYPE svg PUBLIC "-//W3C//DTD SVG 1.1//EN" "http://www.w3.org/Graphics/SVG/1.1/DTD/svg11.dtd">
<svg version="1.1" xmlns="http://www.w3.org/2000/svg" xmlns:xlink="http://www.w3.org/1999/xlink" preserveAspectRatio="xMidYMid meet" viewBox="0 0 640 640" width="640" height="640"><defs><path d="M349.86 245.26C452.25 245.26 535.26 328.27 535.26 430.67C535.26 465.69 535.26 512.21 535.26 578.95C535.26 593.77 523.25 605.79 508.42 605.79C431.68 605.79 228.32 605.79 151.58 605.79C136.75 605.79 124.74 593.77 124.74 578.95C124.74 512.21 124.74 467.69 124.74 433.17C124.74 329.39 208.86 245.26 312.64 245.26C357.17 245.26 304.83 245.26 349.86 245.26Z" id="f1h7DmCqdp"></path><path d="M331.58 263.15C331.58 356.47 257.29 432.23 165.79 432.23C74.29 432.23 0 356.47 0 263.15C0 169.84 74.29 94.08 165.79 94.08C257.29 94.08 331.58 169.84 331.58 263.15Z" id="d5mclVlaH5"></path><path d="M497.37 200.52C497.37 293.84 423.08 369.6 331.58 369.6C240.08 369.6 165.79 293.84 165.79 200.52C165.79 107.21 240.08 31.44 331.58 31.44C423.08 31.44 497.37 107.21 497.37 200.52Z" id="b3LmiPouBx"></path><path d="M640 263.15C640 356.47 565.71 432.23 474.21 432.23C382.71 432.23 308.42 356.47 308.42 263.15C308.42 169.84 382.71 94.08 474.21 94.08C565.71 94.08 640 169.84 640 263.15Z" id="b8fivln7M"></path><path d="M143.48 225.65C134.7 315.74 168.04 372.1 243.48 394.73" id="l9nTh8Klz"></path><clipPath id="clipa1VKqXFBQR"><use xlink:href="#l9nTh8Klz" opacity="1"></use></clipPath><path d="M496 225.65C504.77 315.74 471.44 372.1 396 394.73" id="a8giDATF4"></path><clipPath id="clipa1LyI0uHZa"><use xlink:href="#a8giDATF4" opacity="1"></use></clipPath><path d="M401.91 417.47C429.04 422.86 448.58 446.67 448.58 474.32C448.58 477.75 448.58 464.2 448.58 473.56C448.58 483.44 440.57 491.44 430.7 491.44C414.84 491.44 407.91 491.44 397.75 491.44C372.16 491.44 351.42 470.7 351.42 445.12C351.42 437.58 351.42 455.67 351.42 446.72C351.42 426.39 370.01 411.14 389.94 415.1C401.67 417.43 391.81 415.47 401.91 417.47Z" id="afcExGQdz"></path><path d="M525.62 430.61C518.68 455.86 494.86 472.69 468.75 470.8C464.83 470.52 483.4 471.86 475.83 471.31C461.09 470.25 450.01 457.43 451.08 442.7C452.09 428.65 452.67 420.69 453.55 408.51C454.99 388.61 472.29 373.64 492.19 375.08C501.74 375.77 486.08 374.64 493.56 375.18C517.56 376.92 533.99 400.17 527.61 423.37C524.82 433.51 528.48 420.19 525.62 430.61Z" id="b4yQ6YtZeC"></path><path d="M370.85 535.51C380.99 511.51 406.67 498 432.19 503.26C436.08 504.06 417.78 500.29 425.16 501.81C439.79 504.82 449.21 519.13 446.19 533.77C443.36 547.5 444 544.4 442.09 553.69C436.54 580.61 410.22 597.93 383.3 592.38C376.59 591 402.01 596.24 394.5 594.69C371.35 589.92 358.34 565.18 367.53 543.4C371.68 533.56 366.64 545.51 370.85 535.51Z" id="a3E6PavQXF"></path><path d="M516.56 548.62C530.03 562.84 531.61 584.58 520.33 600.59C517.22 605 528.33 589.23 525.48 593.28C514.04 609.52 491.6 613.43 475.34 602.01C466.62 595.89 480.33 605.52 474.22 601.23C450.77 584.77 445.12 552.4 461.63 528.97C464.72 524.57 453.87 539.98 459.41 532.12C468.56 519.13 487.31 517.76 498.25 529.3C506.54 538.05 508.67 540.3 516.56 548.62Z" id="a2ARJsg3FM"></path><path d="M546.07 457.52C519.73 453.05 493.89 467.81 484.37 492.78C483.04 496.28 487.41 484.83 484.07 493.57C480.55 502.8 485.18 513.13 494.4 516.65C509.22 522.3 518.09 525.68 528.19 529.53C550.44 538.02 575.36 526.86 583.85 504.61C586.76 496.97 578.05 519.81 580.44 513.54C589.74 489.15 574.42 462.34 548.68 457.96C539.1 456.34 556.54 459.3 546.07 457.52Z" id="faqGLKHnI"></path></defs><g><g><g><use xlink:href="#f1h7DmCqdp" opacity="1" fill="#ebf6ee" fill-opacity="1"></use></g><g><use xlink:href="#d5mclVlaH5" opacity="1" fill="#ebf6ee" fill-opacity="1"></use></g><g><use xlink:href="#b3LmiPouBx" opacity="1" fill="#ebf6ee" fill-opacity="1"></use></g><g><use xlink:href="#b8fivln7M" opacity="1" fill="#ebf6ee" fill-opacity="1"></use></g><g><g clip-path="url(#clipa1VKqXFBQR)"><use xlink:href="#l9nTh8Klz" opacity="1" fill-opacity="0" stroke="#7a7777" stroke-width="8" stroke-opacity="1"></use></g></g><g><g clip-path="url(#clipa1LyI0uHZa)"><use xlink:href="#a8giDATF4" opacity="1" fill-opacity="0" stroke="#7a7777" stroke-width="8" stroke-opacity="1"></use></g></g><g><use xlink:href="#afcExGQdz" opacity="1" fill="#ec8667" fill-opacity="1"></use></g><g><use xlink:href="#b4yQ6YtZeC" opacity="1" fill="#ec8667" fill-opacity="1"></use></g><g><use xlink:href="#a3E6PavQXF" opacity="1" fill="#ec8667" fill-opacity="1"></use></g><g><use xlink:href="#a2ARJsg3FM" opacity="1" fill="#ec8667" fill-opacity="1"></use></g><g><use xlink:href="#faqGLKHnI" opacity="1" fill="#ec8667" fill-opacity="1"></use></g></g></g></svg>