<?xml version="1.0" encoding="UTF-8" standalone="no"?>
<!DOCTYPE svg PUBLIC "-//W3C//DTD SVG 1.1//EN" "http://www.w3.org/Graphics/SVG/1.1/DTD/svg11.dtd">
<svg version="1.1" xmlns="http://www.w3.org/2000/svg" xmlns:xlink="http://www.w3.org/1999/xlink" preserveAspectRatio="xMidYMid meet" viewBox="0 0 640 640" width="640" height="640"><defs><path d="M351.98 10.28L358.14 11.39L364.22 12.75L370.2 14.33L376.09 16.13L381.87 18.15L387.55 20.39L393.12 22.84L398.57 25.5L403.9 28.35L409.1 31.39L414.17 34.63L419.1 38.05L423.89 41.65L428.54 45.43L433.03 49.38L437.37 53.49L441.54 57.76L445.54 62.18L449.38 66.75L453.03 71.47L456.51 76.33L459.79 81.33L462.89 86.45L463.92 88.32L464.12 88.29L470.44 87.66L476.83 87.28L483.29 87.15L489.74 87.28L496.13 87.66L502.45 88.29L508.69 89.17L514.85 90.29L520.93 91.64L526.91 93.22L532.8 95.02L538.58 97.05L544.26 99.29L549.83 101.73L555.28 104.39L560.61 107.24L565.81 110.29L570.88 113.52L575.81 116.94L580.61 120.55L585.25 124.32L589.74 128.27L594.08 132.38L598.25 136.65L602.26 141.07L606.09 145.65L609.75 150.37L613.22 155.22L616.51 160.22L619.6 165.34L622.5 170.59L625.19 175.96L627.68 181.44L629.95 187.04L632.01 192.73L633.84 198.53L635.44 204.42L636.81 210.41L637.95 216.48L638.84 222.62L639.48 228.85L639.87 235.14L640 241.5L639.87 247.86L639.48 254.15L638.84 260.37L637.95 266.52L636.81 272.59L635.44 278.57L633.84 284.46L632.01 290.26L629.95 295.96L627.68 301.55L625.19 307.04L622.5 312.41L619.6 317.65L616.51 322.78L613.22 327.77L609.75 332.63L606.09 337.35L602.26 341.92L598.25 346.35L594.08 350.62L589.74 354.73L585.25 358.67L580.61 362.45L575.81 366.05L570.88 369.47L565.81 372.71L560.61 375.76L555.28 378.61L549.83 381.26L544.26 383.71L538.58 385.95L532.8 387.97L529.61 388.95L529.61 553.48L529.59 554.51L529.53 555.53L529.43 556.55L529.28 557.55L529.1 558.53L528.88 559.5L528.63 560.46L528.33 561.4L528.01 562.33L527.64 563.24L527.25 564.13L526.81 565L526.35 565.85L525.86 566.69L525.33 567.5L524.78 568.29L524.19 569.05L523.58 569.8L522.94 570.52L522.27 571.21L521.58 571.88L520.86 572.52L520.11 573.13L519.35 573.71L518.56 574.27L517.75 574.8L516.91 575.29L516.06 575.75L515.19 576.18L514.3 576.58L513.39 576.95L512.46 577.27L511.52 577.57L510.56 577.82L509.59 578.04L508.61 578.22L507.61 578.37L506.6 578.47L505.57 578.53L504.54 578.55L169.4 578.55L168.37 578.53L167.35 578.47L166.33 578.37L165.34 578.22L164.35 578.04L163.38 577.82L162.42 577.57L161.48 577.27L160.55 576.95L159.64 576.58L158.75 576.18L157.88 575.75L157.03 575.29L156.19 574.8L155.38 574.27L154.59 573.71L153.83 573.13L153.08 572.52L152.37 571.88L151.67 571.21L151.01 570.52L150.36 569.8L149.75 569.05L149.17 568.29L148.61 567.5L148.09 566.69L147.59 565.85L147.13 565L146.7 564.13L146.3 563.24L145.94 562.33L145.61 561.4L145.31 560.46L145.06 559.5L144.84 558.53L144.66 557.55L144.51 556.55L144.41 555.53L144.35 554.51L144.33 553.48L144.33 391.74L142.62 391.36L136.63 389.78L130.75 387.97L124.96 385.95L119.28 383.71L113.72 381.26L108.26 378.61L102.94 375.76L97.73 372.71L92.66 369.47L87.73 366.05L82.94 362.45L78.29 358.67L73.8 354.73L69.47 350.62L65.29 346.35L61.29 341.92L57.45 337.35L53.8 332.63L50.32 327.77L47.04 322.78L43.94 317.65L41.05 312.41L38.35 307.04L35.87 301.55L33.6 295.96L31.54 290.26L29.71 284.46L28.1 278.57L26.73 272.59L25.6 266.52L24.71 260.37L24.07 254.15L23.68 247.86L23.55 241.5L23.68 235.14L24.07 228.85L24.71 222.62L25.6 216.48L26.73 210.41L28.1 204.42L29.71 198.53L31.54 192.73L33.6 187.04L35.87 181.44L38.35 175.96L41.05 170.59L43.94 165.34L47.04 160.22L50.32 155.22L53.8 150.37L57.45 145.65L61.29 141.07L65.29 136.65L69.47 132.38L73.8 128.27L78.29 124.32L82.94 120.55L87.73 116.94L92.66 113.52L97.73 110.29L102.94 107.24L108.26 104.39L113.72 101.73L119.28 99.29L124.96 97.05L130.75 95.02L136.63 93.22L142.62 91.64L148.69 90.29L154.85 89.17L161.09 88.29L167.41 87.66L173.8 87.28L180.26 87.15L186.71 87.28L189.71 87.46L190.26 86.45L193.35 81.33L196.64 76.33L200.11 71.47L203.77 66.75L207.6 62.18L211.61 57.76L215.78 53.49L220.12 49.38L224.61 45.43L229.26 41.65L234.05 38.05L238.98 34.63L244.05 31.39L249.25 28.35L254.58 25.5L260.03 22.84L265.6 20.39L271.28 18.15L277.06 16.13L282.95 14.33L288.93 12.75L295.01 11.39L301.17 10.28L307.41 9.4L313.73 8.77L320.12 8.38L326.57 8.26L333.03 8.38L339.42 8.77L345.74 9.4L345.74 9.4L351.98 10.28Z" id="acs7fsWYe"></path><path d="M328.43 2.02L334.6 3.14L340.67 4.49L346.65 6.07L352.54 7.87L358.33 9.9L364 12.14L369.57 14.59L375.02 17.24L380.35 20.09L385.55 23.14L390.62 26.38L395.56 29.8L400.35 33.4L404.99 37.17L409.48 41.12L413.82 45.23L417.99 49.5L422 53.92L425.83 58.5L429.49 63.22L432.96 68.08L436.25 73.07L439.34 78.19L440.38 80.07L440.58 80.04L446.9 79.4L453.29 79.02L459.74 78.89L466.2 79.02L472.59 79.4L478.91 80.04L485.15 80.91L491.31 82.03L497.38 83.38L503.37 84.96L509.25 86.77L515.04 88.79L520.72 91.03L526.28 93.48L531.74 96.13L537.06 98.98L542.27 102.03L547.34 105.27L552.27 108.69L557.06 112.29L561.71 116.07L566.2 120.01L570.53 124.12L574.71 128.39L578.71 132.82L582.55 137.39L586.2 142.11L589.68 146.97L592.96 151.96L596.06 157.09L598.95 162.33L601.65 167.7L604.13 173.19L606.4 178.78L608.46 184.48L610.29 190.28L611.9 196.17L613.27 202.15L614.4 208.22L615.29 214.37L615.93 220.59L616.32 226.88L616.45 233.24L616.32 239.6L615.93 245.89L615.29 252.12L614.4 258.26L613.27 264.33L611.9 270.32L610.29 276.21L608.46 282.01L606.4 287.7L604.13 293.3L601.65 298.78L598.95 304.15L596.06 309.4L592.96 314.52L589.68 319.52L586.2 324.37L582.55 329.09L578.71 333.67L574.71 338.09L570.53 342.36L566.2 346.47L561.71 350.42L557.06 354.19L552.27 357.8L547.34 361.22L542.27 364.45L537.06 367.5L531.74 370.35L526.28 373.01L520.72 375.45L515.04 377.69L509.25 379.72L506.07 380.69L506.07 545.22L506.05 546.26L505.98 547.28L505.88 548.29L505.74 549.29L505.56 550.28L505.34 551.25L505.08 552.21L504.79 553.15L504.46 554.07L504.1 554.98L503.7 555.87L503.27 556.75L502.81 557.6L502.31 558.43L501.79 559.24L501.23 560.03L500.65 560.8L500.03 561.54L499.39 562.26L498.72 562.95L498.03 563.62L497.31 564.26L496.57 564.87L495.8 565.46L495.01 566.01L494.2 566.54L493.37 567.03L492.52 567.5L491.64 567.93L490.75 568.33L489.84 568.69L488.92 569.02L487.98 569.31L487.02 569.57L486.05 569.79L485.06 569.97L484.06 570.11L483.05 570.21L482.03 570.28L480.99 570.3L145.86 570.3L144.82 570.28L143.8 570.21L142.79 570.11L141.79 569.97L140.8 569.79L139.83 569.57L138.87 569.31L137.93 569.02L137.01 568.69L136.1 568.33L135.21 567.93L134.33 567.5L133.48 567.03L132.65 566.54L131.84 566.01L131.05 565.46L130.28 564.87L129.54 564.26L128.82 563.62L128.13 562.95L127.46 562.26L126.82 561.54L126.21 560.8L125.62 560.03L125.07 559.24L124.54 558.43L124.05 557.6L123.58 556.75L123.15 555.87L122.75 554.98L122.39 554.07L122.06 553.15L121.77 552.21L121.51 551.25L121.29 550.28L121.11 549.29L120.97 548.29L120.87 547.28L120.8 546.26L120.78 545.22L120.78 383.48L119.07 383.1L113.09 381.52L107.2 379.72L101.42 377.69L95.74 375.45L90.17 373.01L84.72 370.35L79.39 367.5L74.19 364.45L69.12 361.22L64.19 357.8L59.39 354.19L54.75 350.42L50.26 346.47L45.92 342.36L41.75 338.09L37.74 333.67L33.91 329.09L30.25 324.37L26.78 319.52L23.49 314.52L20.4 309.4L17.5 304.15L14.81 298.78L12.32 293.3L10.05 287.7L7.99 282.01L6.16 276.21L4.56 270.32L3.19 264.33L2.05 258.26L1.16 252.12L0.52 245.89L0.13 239.6L0 233.24L0.13 226.88L0.52 220.59L1.16 214.37L2.05 208.22L3.19 202.15L4.56 196.17L6.16 190.28L7.99 184.48L10.05 178.78L12.32 173.19L14.81 167.7L17.5 162.33L20.4 157.09L23.49 151.96L26.78 146.97L30.25 142.11L33.91 137.39L37.74 132.82L41.75 128.39L45.92 124.12L50.26 120.01L54.75 116.07L59.39 112.29L64.19 108.69L69.12 105.27L74.19 102.03L79.39 98.98L84.72 96.13L90.17 93.48L95.74 91.03L101.42 88.79L107.2 86.77L113.09 84.96L119.07 83.38L125.15 82.03L131.31 80.91L137.55 80.04L143.87 79.4L150.26 79.02L156.71 78.89L163.17 79.02L166.16 79.2L166.72 78.19L169.81 73.07L173.1 68.08L176.57 63.22L180.23 58.5L184.06 53.92L188.07 49.5L192.24 45.23L196.57 41.12L201.07 37.17L205.71 33.4L210.5 29.8L215.43 26.38L220.51 23.14L225.71 20.09L231.04 17.24L236.49 14.59L242.05 12.14L247.73 9.9L253.52 7.87L259.4 6.07L265.39 4.49L271.46 3.14L277.62 2.02L283.87 1.14L290.18 0.51L296.57 0.13L303.03 0L309.48 0.13L315.87 0.51L322.19 1.14L322.19 1.14L328.43 2.02Z" id="a8H2hJZO2"></path><path d="M356.95 378.93C381.49 369.55 408.99 381.85 418.36 406.4C420.53 412.08 417.7 404.67 421.78 415.35C425.88 426.09 420.5 438.12 409.76 442.22C399.08 446.3 406.49 443.47 400.81 445.64C376.26 455.02 348.77 442.72 339.39 418.17C337.22 412.49 342.79 427.06 339.39 418.17C333.4 402.49 341.26 384.92 356.95 378.93C365.83 375.53 351.27 381.1 356.95 378.93Z" id="i6bPMtUshd"></path><path d="M531.35 396.29C506.81 386.91 479.31 399.21 469.94 423.76C467.77 429.44 470.6 422.03 466.52 432.71C462.42 443.45 467.8 455.48 478.54 459.58C489.22 463.66 481.81 460.83 487.49 463C512.04 472.38 539.53 460.08 548.91 435.53C551.08 429.85 545.51 444.42 548.91 435.53C554.9 419.85 547.04 402.28 531.35 396.29C522.47 392.89 537.03 398.46 531.35 396.29Z" id="e1KYfz8Nu4"></path><path d="M423.16 399.37L508.03 399.37L508.03 487.37L423.16 487.37L423.16 399.37Z" id="f5ANFB5yqk"></path><path d="M428.71 335.27C408.89 352.53 406.82 382.58 424.07 402.39C428.06 406.98 420.83 398.67 427.83 406.71C436.78 416.99 452.36 418.07 462.64 409.12C470.68 402.12 462.38 409.35 466.96 405.36C486.78 388.1 488.85 358.05 471.6 338.24C467.61 333.65 477.85 345.41 471.6 338.24C460.57 325.58 441.37 324.25 428.71 335.27C421.53 341.52 433.29 331.28 428.71 335.27Z" id="a1HEXlBmmz"></path><path d="M527.04 390.26C502.49 380.88 475 393.18 465.62 417.73C463.45 423.41 466.28 416 462.2 426.68C458.1 437.42 463.48 449.45 474.22 453.55C484.9 457.63 477.49 454.8 483.17 456.97C507.72 466.35 535.22 454.05 544.59 429.51C546.76 423.83 541.2 438.39 544.59 429.51C550.58 413.82 542.72 396.25 527.04 390.26C518.15 386.86 532.72 392.43 527.04 390.26Z" id="a2ayL8CCX2"></path><path d="M387.96 529.47C414.23 529.22 435.33 507.71 435.07 481.44C435.01 475.36 435.09 483.28 434.98 471.85C434.87 460.36 425.46 451.13 413.97 451.24C402.53 451.35 410.46 451.27 404.38 451.33C378.11 451.59 357.01 473.09 357.27 499.36C357.33 505.44 357.18 489.85 357.27 499.36C357.43 516.15 371.17 529.63 387.96 529.47C397.47 529.38 381.88 529.53 387.96 529.47Z" id="ceT4UsEX"></path><path d="M476.08 538.36C450.33 533.16 433.67 508.07 438.87 482.31C440.07 476.35 438.5 484.12 440.77 472.92C443.04 461.65 454.02 454.36 465.29 456.63C476.49 458.9 468.72 457.33 474.68 458.53C500.44 463.73 517.1 488.82 511.9 514.58C510.7 520.54 513.78 505.25 511.9 514.58C508.58 531.04 492.54 541.68 476.08 538.36C466.76 536.48 482.04 539.56 476.08 538.36Z" id="c2aD0g13P0"></path></defs><g><g><g><use xlink:href="#acs7fsWYe" opacity="1" fill="#2f2f2f" fill-opacity="1"></use></g><g><use xlink:href="#a8H2hJZO2" opacity="1" fill="#f5f5f5" fill-opacity="1"></use></g><g><use xlink:href="#i6bPMtUshd" opacity="1" fill="#f26969" fill-opacity="1"></use></g><g><use xlink:href="#e1KYfz8Nu4" opacity="1" fill="#2f2f2f" fill-opacity="1"></use></g><g><use xlink:href="#f5ANFB5yqk" opacity="1" fill="#f5f5f5" fill-opacity="1"></use></g><g><use xlink:href="#a1HEXlBmmz" opacity="1" fill="#f26969" fill-opacity="1"></use></g><g><use xlink:href="#a2ayL8CCX2" opacity="1" fill="#f26969" fill-opacity="1"></use></g><g><use xlink:href="#ceT4UsEX" opacity="1" fill="#f26969" fill-opacity="1"></use></g><g><use xlink:href="#c2aD0g13P0" opacity="1" fill="#f26969" fill-opacity="1"></use></g></g></g></svg>